<svg xmlns="http://www.w3.org/2000/svg" viewBox="0 0 1200 760">
<defs>
  <linearGradient id="bg" x1="0" y1="0" x2="1" y2="1"><stop offset="0" stop-color="#0e1d31"/><stop offset="1" stop-color="#07111f"/></linearGradient>
  <filter id="shadow"><feDropShadow dx="0" dy="2" stdDeviation="3" flood-color="#000" flood-opacity=".35"/></filter>
  <pattern id="blocks" width="18" height="18" patternUnits="userSpaceOnUse"><rect width="18" height="18" fill="#13243a"/><path d="M0 9H18M9 0V18" stroke="#1c3450" stroke-width=".6"/></pattern>
</defs>
<rect width="1200" height="760" fill="url(#bg)"/>
<path d="M0 610 C150 560 245 600 340 550 C460 486 520 520 630 455 C760 380 858 425 980 350 C1060 302 1135 294 1200 250 L1200 760 L0 760Z" fill="#0b2840" opacity=".78"/>
<path d="M0 622 C170 567 255 612 350 562 C470 500 545 530 650 468 C760 401 865 443 990 365 C1074 313 1140 305 1200 267" fill="none" stroke="#1f6184" stroke-width="10" opacity=".65"/>
<g opacity=".88">
  <path d="M60 112L1150 650" stroke="#375875" stroke-width="18" stroke-linecap="round"/>
  <path d="M50 120L1140 658" stroke="#7da3bf" stroke-width="2" stroke-linecap="round"/>
  <path d="M95 650C245 520 328 430 470 340S765 195 1110 105" fill="none" stroke="#385a77" stroke-width="15" stroke-linecap="round"/>
  <path d="M95 650C245 520 328 430 470 340S765 195 1110 105" fill="none" stroke="#83a8c3" stroke-width="2" stroke-linecap="round"/>
  <path d="M110 220C300 270 440 230 610 282S925 370 1110 332" fill="none" stroke="#2c4a66" stroke-width="12" stroke-linecap="round"/>
  <path d="M110 220C300 270 440 230 610 282S925 370 1110 332" fill="none" stroke="#688ba7" stroke-width="1.8" stroke-linecap="round"/>
  <path d="M170 75C260 225 255 350 330 510S455 690 540 725" fill="none" stroke="#29455f" stroke-width="10"/>
  <path d="M430 40C470 180 450 300 520 430S650 635 690 735" fill="none" stroke="#29455f" stroke-width="10"/>
  <path d="M760 40C720 185 755 310 820 445S915 635 960 720" fill="none" stroke="#29455f" stroke-width="10"/>
  <path d="M1010 60C935 210 950 325 1018 475S1110 650 1160 720" fill="none" stroke="#29455f" stroke-width="10"/>
</g>
<g stroke="#1c334b" stroke-width="3" fill="none" opacity=".8">
  <path d="M70 170C240 120 360 145 500 205S780 250 1130 170"/>
  <path d="M40 300C210 335 350 310 495 350S805 430 1160 410"/>
  <path d="M65 430C210 390 330 420 500 490S780 580 1145 530"/>
  <path d="M100 545C260 500 390 540 520 600S780 690 1090 640"/>
  <path d="M260 70C305 170 325 300 300 700"/>
  <path d="M585 55C555 205 590 355 610 710"/>
  <path d="M890 55C850 210 875 395 900 700"/>
</g>
<g fill="url(#blocks)" stroke="#28425d" stroke-width="1" opacity=".8">
  <path d="M105 145L260 115L315 205L180 245Z"/>
  <path d="M345 120L500 150L485 255L330 235Z"/>
  <path d="M585 105L735 110L750 220L600 230Z"/>
  <path d="M820 100L1010 120L1000 245L835 225Z"/>
  <path d="M150 300L300 280L330 385L180 405Z"/>
  <path d="M385 300L545 290L565 405L410 430Z"/>
  <path d="M665 300L820 320L805 445L650 425Z"/>
  <path d="M930 285L1090 310L1080 445L920 430Z"/>
  <path d="M210 465L365 455L390 575L225 590Z"/>
  <path d="M470 470L635 480L645 605L485 600Z"/>
  <path d="M735 475L885 495L885 620L720 605Z"/>
  <path d="M960 470L1110 490L1090 610L945 595Z"/>
</g>
<g fill="#153b2e" stroke="#2b6a52" stroke-width="2" opacity=".9">
  <path d="M70 55L195 40L235 105L135 130Z"/>
  <path d="M520 55L650 50L680 100L555 115Z"/>
  <path d="M985 205L1135 190L1150 265L1015 280Z"/>
  <path d="M55 485L165 455L190 535L75 560Z"/>
</g>
<g fill="#91a4bd" font-family="Arial,Microsoft YaHei" font-size="18" font-weight="700" opacity=".75">
  <text x="125" y="355">南山区</text><text x="430" y="355">福田区</text><text x="715" y="375">罗湖区</text><text x="980" y="360">盐田区</text>
</g>
<g fill="#8fb5d0" font-family="Arial,Microsoft YaHei" font-size="13" opacity=".85">
  <text x="395" y="305" transform="rotate(25 395 305)">深南大道</text>
  <text x="610" y="310">滨河大道</text>
  <text x="300" y="515" transform="rotate(-38 300 515)">南海大道</text>
  <text x="805" y="176" transform="rotate(-25 805 176)">罗沙路</text>
  <text x="990" y="520">沿河北路</text>
</g>
<g filter="url(#shadow)">
  <circle cx="250" cy="610" r="9" fill="#34d399" stroke="#fff" stroke-width="2"/><text x="266" y="615" fill="#86efac" font-size="13" font-family="Microsoft YaHei">血站保障点</text>
  <circle cx="920" cy="170" r="9" fill="#fb7185" stroke="#fff" stroke-width="2"/><text x="936" y="175" fill="#fda4af" font-size="13" font-family="Microsoft YaHei">中心医院</text>
  <rect x="580" y="420" width="17" height="17" rx="4" fill="#60a5fa" stroke="#fff" stroke-width="2"/><text x="602" y="433" fill="#93c5fd" font-size="13" font-family="Microsoft YaHei">检验中心</text>
  <rect x="730" y="260" width="17" height="17" rx="4" fill="#38bdf8" stroke="#fff" stroke-width="2"/><text x="753" y="273" fill="#7dd3fc" font-size="13" font-family="Microsoft YaHei">无人机机巢</text>
</g>
</svg>